<?xml version="1.0"?>
<svg width="153" height="28" xmlns="http://www.w3.org/2000/svg" xmlns:svg="http://www.w3.org/2000/svg">
 <g class="layer">
  <title>Layer 1</title>
  <path clip-rule="evenodd" d="m13.34,27.66l-12.54,-5.77c-1.07,-0.5 -1.07,-1.28 0,-1.74l4.37,-2.01l8.12,3.75c1.07,0.5 2.79,0.5 3.81,0l8.13,-3.75l4.36,2.01c1.07,0.5 1.07,1.28 0,1.74l-12.53,5.77c-0.98,0.45 -2.7,0.45 -3.72,0z" fill="#FF6F3D" fill-rule="evenodd" id="svg_1"/>
  <path clip-rule="evenodd" d="m13.34,20.56l-12.54,-5.76c-1.07,-0.51 -1.07,-1.29 0,-1.74l4.27,-1.97l8.27,3.8c1.07,0.5 2.79,0.5 3.81,0l8.27,-3.8l4.27,1.97c1.07,0.5 1.07,1.28 0,1.74l-12.54,5.76c-1.07,0.51 -2.79,0.51 -3.81,0z" fill="#95C038" fill-rule="evenodd" id="svg_2"/>
  <path clip-rule="evenodd" d="m13.34,13.65l-12.54,-5.77c-1.07,-0.5 -1.07,-1.28 0,-1.74l12.54,-5.76c1.07,-0.51 2.79,-0.51 3.81,0l12.54,5.76c1.07,0.51 1.07,1.29 0,1.74l-12.54,5.77c-1.07,0.46 -2.79,0.46 -3.81,0z" fill="#5DC0E8" fill-rule="evenodd" id="svg_3"/>
  <path d="m38.15,13.94c0,-2.38 0.69,-4.18 2.12,-5.35c1.39,-1.22 3.05,-1.8 4.94,-1.8c1.88,0 3.5,0.58 4.88,1.8c1.38,1.21 2.08,2.97 2.08,5.4c0,2.38 -0.7,4.18 -2.08,5.35c-1.38,1.22 -3.04,1.8 -4.88,1.8c-1.89,0 -3.51,-0.58 -4.94,-1.8c-1.43,-1.21 -2.12,-3.01 -2.12,-5.4zm3.05,0c0,1.67 0.32,2.84 0.92,3.6c0.64,0.77 1.33,1.26 2.07,1.44c0.19,0.05 0.32,0.09 0.51,0.09c0.14,0 0.32,0.05 0.46,0.05c0.18,0 0.32,0 0.51,-0.05c0.18,0 0.32,-0.04 0.5,-0.09c0.74,-0.18 1.43,-0.67 2.03,-1.44c0.6,-0.76 0.92,-1.98 0.92,-3.55c0,-1.62 -0.32,-2.79 -0.92,-3.56c-0.6,-0.76 -1.29,-1.26 -2.03,-1.44c-0.18,-0.04 -0.37,-0.09 -0.5,-0.09c-0.19,0 -0.33,-0.04 -0.51,-0.04c-0.19,0 -0.32,0 -0.46,0.04c-0.14,0 -0.32,0.05 -0.51,0.09c-0.74,0.18 -1.43,0.68 -2.07,1.44c-0.6,0.68 -0.92,1.89 -0.92,3.51z" fill="white" id="svg_4"/>
  <path d="m53.69,6.92l3.78,0l4.97,8.82l0.74,1.94l0.05,0l-0.05,-2.52l0,-8.24l2.91,0l0,14.04l-3.78,0l-4.98,-9.18l-0.74,-1.57l-0.05,0l0.05,2.47l0,8.28l-2.9,0l0,-14.04z" fill="white" id="svg_5"/>
  <path d="m69.08,6.92l2.91,0l0,11.66l5.71,0l0,2.38l-8.62,0l0,-14.04z" fill="white" id="svg_6"/>
  <path d="m75.9,6.92l3.37,0l2.95,4.91l0.46,0.99l0.09,0l0.46,-0.99l3,-4.91l3.09,0l-5.21,8.33l0,5.71l-2.91,0l0,-5.76l-5.3,-8.28z" fill="white" id="svg_7"/>
  <path d="m88.95,13.94c0,-2.38 0.69,-4.18 2.12,-5.35c1.38,-1.22 3.04,-1.8 4.93,-1.8c1.89,0 3.5,0.58 4.89,1.8c1.38,1.21 2.07,2.97 2.07,5.4c0,2.38 -0.69,4.18 -2.07,5.35c-1.39,1.22 -3.05,1.8 -4.89,1.8c-1.89,0 -3.5,-0.58 -4.93,-1.8c-1.39,-1.21 -2.12,-3.01 -2.12,-5.4zm3.04,0c0,1.67 0.32,2.84 0.92,3.6c0.65,0.77 1.29,1.26 2.08,1.44c0.18,0.05 0.32,0.09 0.5,0.09c0.14,0 0.33,0.05 0.46,0.05c0.19,0 0.33,0 0.51,-0.05c0.18,0 0.32,-0.04 0.51,-0.09c0.73,-0.18 1.43,-0.67 2.03,-1.44c0.59,-0.76 0.92,-1.98 0.92,-3.55c0,-1.62 -0.33,-2.79 -0.92,-3.56c-0.6,-0.76 -1.3,-1.26 -2.03,-1.44c-0.19,-0.04 -0.37,-0.09 -0.51,-0.09c-0.18,0 -0.32,-0.04 -0.51,-0.04c-0.18,0 -0.32,0 -0.46,0.04c-0.14,0 -0.32,0.05 -0.5,0.09c-0.74,0.18 -1.43,0.68 -2.08,1.44c-0.6,0.68 -0.92,1.89 -0.92,3.51z" fill="white" id="svg_8"/>
  <path d="m104.99,6.92l8.02,0l0,2.34l-5.12,0l0,3.42l4.89,0l0,2.39l-4.89,0l0,5.89l-2.9,0l0,-14.04z" fill="white" id="svg_9"/>
  <path d="m115.17,6.92l8.02,0l0,2.34l-5.11,0l0,3.42l4.88,0l0,2.39l-4.88,0l0,5.89l-2.91,0l0,-14.04z" fill="white" id="svg_10"/>
  <path d="m124.9,20.96l0,-14.04l2.9,0l0,14.04l-2.9,0z" fill="white" id="svg_11"/>
  <path d="m140.6,7.24l0,2.43c-0.51,-0.18 -1.01,-0.32 -1.57,-0.41c-0.55,-0.09 -1.2,-0.13 -1.84,-0.13c-1.52,0 -2.68,0.45 -3.5,1.39c-0.84,0.9 -1.25,2.07 -1.25,3.47c0,1.35 0.37,2.47 1.15,3.37c0.79,0.9 1.89,1.4 3.32,1.4c0.51,0 1.02,-0.05 1.62,-0.09c0.59,-0.09 1.19,-0.23 1.84,-0.5l0.18,2.39c-0.09,0.04 -0.23,0.09 -0.37,0.13c-0.18,0.05 -0.37,0.09 -0.59,0.14c-0.37,0.09 -0.84,0.13 -1.39,0.22c-0.55,0.05 -1.1,0.09 -1.7,0.09c-0.1,0 -0.19,0 -0.23,0c-0.1,0 -0.19,0 -0.23,0c-1.66,-0.09 -3.19,-0.72 -4.57,-1.8c-1.38,-1.12 -2.07,-2.88 -2.07,-5.22c0,-2.29 0.69,-4.09 2.03,-5.35c1.33,-1.26 3.18,-1.89 5.44,-1.89c0.59,0 1.15,0 1.61,0.04c0.51,0.05 0.97,0.14 1.47,0.23c0.1,0.04 0.23,0.04 0.33,0.09c0.09,-0.05 0.18,0 0.32,0z" fill="white" id="svg_12"/>
  <path d="m142.9,6.92l8.62,0l0,2.21l-5.67,0l0,3.51l5.12,0l0,2.16l-5.12,0l0,3.96l5.67,0l0,2.2l-8.62,0l0,-14.04z" fill="white" id="svg_13"/>
  <text fill="#ff0000" font-family="Monospace" font-size="22" font-weight="bold" id="svg_14" stroke="#000000" stroke-width="0" text-anchor="middle" transform="rotate(-15 110.75 13.0364)" x="110.75" xml:space="preserve" y="20.4">EDITED</text>
  <rect fill="#000000" fill-opacity="0" height="19.49" id="svg_15" stroke="#ff0000" transform="rotate(-15 111.585 12.9759)" width="76.28" x="73.45" y="3.23"/>
 </g>

</svg>